<svg width="60" height="60" viewBox="0 0 60 60" fill="none" xmlns="http://www.w3.org/2000/svg">
<path fill-rule="evenodd" clip-rule="evenodd" d="M40.7147 52.4984L41.0516 52.8391L41.0809 52.8681C44.5216 56.1962 48.6353 55.1078 50.6541 53.2784L50.6728 53.2616L52.4278 51.6275C52.6258 51.4432 52.7815 51.2182 52.8843 50.9681C52.9871 50.7179 53.0346 50.4485 53.0235 50.1783C53.0124 49.908 52.943 49.6434 52.82 49.4025C52.697 49.1617 52.5233 48.9502 52.3109 48.7828C52.3109 48.7828 50.3641 47.2491 49.02 45.9847C48.9236 45.8937 48.8292 45.8007 48.7369 45.7056C51.5316 41.3328 52.8213 35.5509 52.8213 29.8384C52.8213 22.7672 50.6763 15.7716 46.3278 11.2631C42.2294 7.01437 36.0734 5 29.9919 5C24.0738 5 18.0934 6.91531 14.03 10.9628C9.48688 15.4884 7.16251 22.5866 7.16251 29.8384C7.16251 36.5406 8.95376 43.3216 12.9125 47.7747C17.0731 52.4544 23.6 54.7922 30.0256 54.6766C33.4641 54.6147 37.8909 53.8269 40.7147 52.4984ZM42.3725 48.8422C42.0582 48.5245 41.6407 48.3295 41.1954 48.2924C40.75 48.2552 40.306 48.3784 39.9434 48.6397C37.8716 50.1331 33.3194 50.8666 29.9581 50.9272C24.6231 51.0231 19.1694 49.1684 15.7153 45.2831C12.3156 41.4594 10.9125 35.5937 10.9125 29.8384C10.9125 23.6241 12.7834 17.4978 16.6766 13.6194C20.0575 10.2519 25.0678 8.75 29.9919 8.75C35.0547 8.75 40.2166 10.3294 43.6288 13.8666C47.3575 17.7325 49.0713 23.7747 49.0713 29.8384C49.0713 35.2253 47.8419 40.7091 44.9553 44.5884C44.7041 44.9259 44.5481 45.3384 44.5631 45.8441C44.5737 46.1984 44.7541 46.8766 45.3619 47.5962C45.9841 48.3328 47.2528 49.4541 48.3047 50.3425L48.1284 50.5065C47.1897 51.35 45.2994 51.715 43.7059 50.19L42.3725 48.8422ZM35.8275 45.8853C36.1095 45.7661 36.358 45.5797 36.5513 45.3423C36.7446 45.105 36.8768 44.8239 36.9365 44.5236C36.9961 44.2234 36.9813 43.9131 36.8933 43.6199C36.8054 43.3266 36.6469 43.0594 36.4319 42.8416L33.1216 39.4859L33.7409 38.8872L33.7638 38.865C33.9681 38.6606 34.3869 38.6194 34.8247 38.5725C35.6681 38.4819 36.6856 38.5447 37.26 39.1047C37.3838 39.2309 38.57 40.4441 38.8184 40.6934C38.9181 40.7937 38.9831 40.8481 38.9947 40.8578C39.7516 41.4853 40.4262 41.2794 40.5491 41.2556C41.1725 41.1347 41.5859 40.7875 41.8478 40.295C43.3225 37.5209 44.1009 33.5784 44.1009 29.8384C44.1009 24.9919 42.7841 20.2025 40.1738 17.1125C37.6184 14.0875 33.7838 12.6541 29.9919 12.6541C26.2997 12.6541 22.5722 14.0184 20.0372 16.9019C17.3091 20.005 15.8828 24.8662 15.8828 29.8384C15.8828 34.4281 16.9847 39.0681 19.3591 42.1175C21.9628 45.4619 26.0616 47.2084 30.0794 47.0206C33.5825 46.8569 35.8275 45.8853 35.8275 45.8853ZM39.5069 36.0987C38.1722 35.0616 36.1741 34.6562 34.4247 34.8437C33.0084 34.9956 31.7934 35.5406 31.1253 36.2003L29.1534 38.1062C28.9752 38.2785 28.8328 38.4843 28.7346 38.7119C28.6365 38.9395 28.5844 39.1843 28.5815 39.4322C28.5785 39.68 28.6248 39.926 28.7175 40.1558C28.8103 40.3857 28.9477 40.5949 29.1219 40.7713L31.4516 43.1328C30.9382 43.2034 30.422 43.2507 29.9044 43.2747C27.0622 43.4075 24.1597 42.1794 22.3178 39.8137C20.3959 37.3453 19.6328 33.5537 19.6328 29.8384C19.6328 25.8331 20.6559 21.8775 22.8534 19.3778C24.6647 17.3178 27.3538 16.4041 29.9919 16.4041C32.7066 16.4041 35.4797 17.3666 37.3091 19.5325C39.415 22.0256 40.3509 25.9281 40.3509 29.8384C40.3509 31.9653 40.0744 34.1766 39.5069 36.0987Z" fill="#FFC300"/>
</svg>
